<?xml version="1.0" encoding="utf-8"?>
<svg version="1.1" viewBox="0 0 106.254 127.08375000000001" x="0px" y="0px" xmlns="http://www.w3.org/2000/svg">
  <defs/>
  <rect x="29.628" y="7.403" width="47.852" height="90.204" style="paint-order: fill; fill: rgba(200, 221, 32, 0); stroke: rgb(0, 0, 0);"/>
  <rect x="33.333" y="12.54" width="48.982" height="90.133" style="paint-order: fill; fill: rgb(221, 32, 175); stroke: rgba(221, 33, 175, 0);"/>
  <rect x="4.676" y="15.746" width="33.097" height="67.026" style="paint-order: fill; fill: rgba(200, 221, 32, 0); stroke: rgb(0, 0, 0);"/>
  <rect x="9.09" y="19.677" width="33.097" height="67.889" style="paint-order: fill; stroke: rgba(221, 33, 175, 0); fill: rgb(200, 221, 32);"/>
  <rect x="54.235" y="44.759" width="37.87" height="68.23" style="paint-order: fill; fill: rgba(200, 221, 32, 0); stroke: rgb(0, 0, 0);"/>
  <rect x="51.318" y="47.601" width="37.128" height="67.889" style="paint-order: fill; stroke: rgba(221, 33, 175, 0); fill: rgb(32, 219, 221);"/>
  <g transform="matrix(-0.979566, 0, 0, 0.980907, 121.917336, 26.587635)" style="">
    <g transform="matrix(-0.439399, -0.010453, -0.008876, 0.37314, 17.980927, -40.236916)" style="transform-origin: 74.7767px 89.3395px;">
      <g>
        <path d="M 94.528 68.171 L 97.666 56.285 L 49.658 70.5 C 48.734 74.219 47.49 78.428 46.566 82.147 L 77.956 130.52 L 81.106 118.519 L 55.182 79.423 L 94.528 68.171 Z" style="transform-origin: 67.961px 84.863px;"/>
      </g>
    </g>
    <g transform="matrix(0.505331, -0.288433, 0.205816, 0.359604, -25.30475, -52.063622)" style="transform-origin: 81.1083px 80.7199px;">
      <g style="transform-origin: 74.7767px 89.3395px;" transform="matrix(0.977262, 0.227017, -0.198041, 0.977262, 6.331587, -8.619638)">
        <path d="m 95.745929,62.69857 -0.01685,-12.53955 -41.90426,33.033268 c 0.06,3.9 -0.06001,8.394444 -1.5e-5,12.294444 L 95.729075,128.52 95.695368,115.86639 61.301123,89.394063 z"/>
      </g>
    </g>
    <g transform="matrix(0.387206, 0.207972, 0.17661, -0.328818, 26.64006, -65.734688)" style="transform-origin: 74.777px 89.34px;">
      <g>
        <path d="M 94.528 68.171 L 97.666 56.285 L 49.658 70.5 C 48.734 74.219 47.49 78.428 46.566 82.147 L 77.956 130.52 L 81.106 118.519 L 55.182 79.423 L 94.528 68.171 Z" style="transform-origin: 67.961px 84.863px;"/>
      </g>
    </g>
    <g transform="matrix(-0.392398, 0.429624, -0.306264, -0.279066, -20.124203, -26.506823)" style="transform-origin: 81.108px 80.72px;">
      <g style="transform-origin: 74.7767px 89.3395px;" transform="matrix(0.977262, 0.227017, -0.198041, 0.977262, 6.331587, -8.619638)">
        <path d="m 95.745929,62.69857 -0.01685,-12.53955 -41.90426,33.033268 c 0.06,3.9 -0.06001,8.394444 -1.5e-5,12.294444 L 95.729075,128.52 95.695368,115.86639 61.301123,89.394063 z"/>
      </g>
    </g>
    <g transform="matrix(0.007718, -0.581802, 0.414307, 0.005008, 9.955606, -75.910995)" style="transform-origin: 81.108px 80.72px;">
      <g style="transform-origin: 74.7767px 89.3395px;" transform="matrix(0.977262, 0.227017, -0.198041, 0.977262, 6.331587, -8.619638)">
        <path d="m 95.745929,62.69857 -0.01685,-12.53955 -41.90426,33.033268 c 0.06,3.9 -0.06001,8.394444 -1.5e-5,12.294444 L 95.729075,128.52 95.695368,115.86639 61.301123,89.394063 z"/>
      </g>
    </g>
    <g transform="matrix(-0.439399, -0.010453, -0.008876, 0.37314, -35.371342, -89.842926)" style="transform-origin: 74.777px 89.34px;">
      <g>
        <path d="M 94.528 68.171 L 97.666 56.285 L 49.658 70.5 C 48.734 74.219 47.49 78.428 46.566 82.147 L 77.956 130.52 L 81.106 118.519 L 55.182 79.423 L 94.528 68.171 Z" style="transform-origin: 67.961px 84.863px;"/>
      </g>
    </g>
    <g transform="matrix(0.423603, -0.17145, -0.131408, -0.324672, 2.627551, -21.347)" style="transform-origin: 74.777px 89.34px;">
      <g>
        <path d="M 94.528 68.171 L 97.666 56.285 L 49.658 70.5 C 48.734 74.219 47.49 78.428 46.566 82.147 L 77.956 130.52 L 81.106 118.519 L 55.182 79.423 L 94.528 68.171 Z" style="transform-origin: 67.961px 84.863px;"/>
      </g>
    </g>
  </g>
  <g transform="matrix(-0.580456, 0.040363, 0.044123, 0.636257, -12.356682, 7.775033)" style="transform-origin: 61.0122px 50.9096px;">
    <path d="M 49.441 17.488 L 40.325 17.488 L 75.569 83.301 L 86.402 83.301" style="transform-box: fill-box; transform-origin: 50% 50%;" transform="matrix(0.993334, 0.115272, -0.115272, 0.993334, 0.000001, 0)"/>
  </g>
  <g transform="matrix(-0.580456, 0.040363, 0.044123, 0.636257, -13.758365, -13.087917)" style="transform-origin: 61.012px 50.91px;">
    <path d="M 49.441 17.488 L 40.325 17.488 L 75.569 83.301 L 86.402 83.301" style="transform-box: fill-box; transform-origin: 50% 50%;" transform="matrix(0.993334, 0.115272, -0.115272, 0.993334, 0.000001, 0)"/>
  </g>
  <g transform="matrix(0.294688, -0.502397, -0.54919, -0.323016, 11.501925, -9.496864)" style="transform-origin: 61.012px 50.91px;">
    <path d="M 49.441 17.488 L 40.325 17.488 L 75.569 83.301 L 86.402 83.301" style="transform-box: fill-box; transform-origin: 50% 50%;" transform="matrix(0.993334, 0.115272, -0.115272, 0.993334, 0.000001, 0)"/>
  </g>
  <g transform="matrix(0.294688, -0.502397, -0.54919, -0.323016, -26.839325, 52.781166)" style="transform-origin: 61.012px 50.91px;">
    <path d="M 49.441 17.488 L 40.325 17.488 L 75.569 83.301 L 86.402 83.301" style="transform-box: fill-box; transform-origin: 50% 50%;" transform="matrix(0.993334, 0.115272, -0.115272, 0.993334, 0.000001, 0)"/>
  </g>
  <g transform="matrix(-0.580456, 0.040363, 0.044123, 0.636257, 94.198936, -27.555304)" style="transform-origin: 25.27px 132.32px;">
    <path d="M 49.441 17.488 L 40.325 17.488 L 75.569 83.301 L 86.402 83.301" style="transform-box: fill-box; transform-origin: 50% 50%;" transform="matrix(0.993334, 0.115272, -0.115272, 0.993334, 0.000001, 0)"/>
  </g>
</svg>