<?xml version="1.0" encoding="utf-8"?>
<svg version="1.1" viewBox="0 0 106.254 127.08375000000001" x="0px" y="0px" xmlns="http://www.w3.org/2000/svg">
  <defs/>
  <g transform="matrix(-0.822132, 0, 0, 0.822132, 105.837715, 29.256498)">
    <g transform="matrix(-0.439399, -0.010453, -0.008876, 0.37314, 17.980927, -40.236916)" style="transform-origin: 74.7767px 89.3395px;">
      <g>
        <path d="M 94.528 68.171 L 97.666 56.285 L 49.658 70.5 C 48.734 74.219 47.49 78.428 46.566 82.147 L 77.956 130.52 L 81.106 118.519 L 55.182 79.423 L 94.528 68.171 Z" style="transform-origin: 67.961px 84.863px;"/>
      </g>
    </g>
    <g transform="matrix(0.505331, -0.288433, 0.205816, 0.359604, -25.30475, -52.063622)" style="transform-origin: 81.1083px 80.7199px;">
      <g style="transform-origin: 74.7767px 89.3395px;" transform="matrix(0.977262, 0.227017, -0.198041, 0.977262, 6.331587, -8.619638)">
        <path d="m 95.745929,62.69857 -0.01685,-12.53955 -41.90426,33.033268 c 0.06,3.9 -0.06001,8.394444 -1.5e-5,12.294444 L 95.729075,128.52 95.695368,115.86639 61.301123,89.394063 z"/>
      </g>
    </g>
  </g>
  <g transform="matrix(-0.487166, 0.03383, 0.037032, 0.533269, -16.661781, 5.248505)" style="transform-origin: 61.0122px 50.9096px;">
    <path d="M 49.441 17.488 L 40.325 17.488 L 75.569 83.301 L 86.402 83.301" style="transform-box: fill-box; transform-origin: 50% 50%;" transform="matrix(0.993334, 0.115272, -0.115272, 0.993334, 0.000001, 0)"/>
  </g>
</svg>